<svg width="223" height="47" viewBox="0 0 223 47" fill="none" xmlns="http://www.w3.org/2000/svg">
<path d="M13.8035 41.7C11.1035 41.7 8.72018 41.2167 6.65352 40.25C4.58685 39.2834 2.97018 37.9 1.80352 36.1C0.636849 34.3 0.0535157 32.1334 0.0535157 29.6V28.2H6.55352V29.6C6.55352 31.7 7.20352 33.2834 8.50352 34.35C9.80352 35.3834 11.5702 35.9 13.8035 35.9C16.0702 35.9 17.7535 35.45 18.8535 34.55C19.9869 33.65 20.5535 32.5 20.5535 31.1C20.5535 30.1334 20.2869 29.35 19.7535 28.75C19.2202 28.15 18.4369 27.6667 17.4035 27.3C16.3702 26.9 15.1035 26.5334 13.6035 26.2L12.4535 25.95C10.0535 25.4167 7.98685 24.75 6.25352 23.95C4.55352 23.1167 3.23685 22.0334 2.30352 20.7C1.40352 19.3667 0.953516 17.6334 0.953516 15.5C0.953516 13.3667 1.45352 11.55 2.45352 10.05C3.48685 8.51668 4.92018 7.35002 6.75352 6.55002C8.62018 5.71668 10.8035 5.30002 13.3035 5.30002C15.8035 5.30002 18.0202 5.73335 19.9535 6.60002C21.9202 7.43335 23.4535 8.70002 24.5535 10.4C25.6869 12.0667 26.2535 14.1667 26.2535 16.7V18.2H19.7535V16.7C19.7535 15.3667 19.4869 14.3 18.9535 13.5C18.4535 12.6667 17.7202 12.0667 16.7535 11.7C15.7869 11.3 14.6368 11.1 13.3035 11.1C11.3035 11.1 9.82018 11.4833 8.85352 12.25C7.92018 12.9834 7.45352 14 7.45352 15.3C7.45352 16.1667 7.67018 16.9 8.10352 17.5C8.57018 18.1 9.25352 18.6 10.1535 19C11.0535 19.4 12.2035 19.75 13.6035 20.05L14.7535 20.3C17.2535 20.8334 19.4202 21.5167 21.2535 22.35C23.0868 23.1834 24.5035 24.2834 25.5035 25.65C26.5368 27.0167 27.0535 28.7667 27.0535 30.9C27.0535 33.0334 26.5035 34.9167 25.4035 36.55C24.3368 38.15 22.8035 39.4167 20.8035 40.35C18.8368 41.25 16.5035 41.7 13.8035 41.7ZM10.7535 46.8V0.200017H16.7535V46.8H10.7535ZM30.9758 41V35.2H35.5758V11.8H30.9758V6.00002H48.9758C51.1091 6.00002 52.9591 6.36668 54.5258 7.10002C56.1258 7.80002 57.3591 8.81668 58.2258 10.15C59.1258 11.45 59.5758 13.0167 59.5758 14.85V15.35C59.5758 16.95 59.2758 18.2667 58.6758 19.3C58.0758 20.3 57.3591 21.0834 56.5258 21.65C55.7258 22.1834 54.9591 22.5667 54.2258 22.8V23.7C54.9591 23.9 55.7591 24.2834 56.6258 24.85C57.4924 25.3834 58.2258 26.1667 58.8258 27.2C59.4591 28.2334 59.7758 29.5834 59.7758 31.25V31.75C59.7758 33.6834 59.3258 35.35 58.4258 36.75C57.5258 38.1167 56.2758 39.1667 54.6758 39.9C53.1091 40.6334 51.2758 41 49.1758 41H30.9758ZM42.1758 35H48.3758C49.8091 35 50.9591 34.65 51.8258 33.95C52.7258 33.25 53.1758 32.25 53.1758 30.95V30.45C53.1758 29.15 52.7424 28.15 51.8758 27.45C51.0091 26.75 49.8424 26.4 48.3758 26.4H42.1758V35ZM42.1758 20.4H48.2758C49.6424 20.4 50.7591 20.05 51.6258 19.35C52.5258 18.65 52.9758 17.6834 52.9758 16.45V15.95C52.9758 14.6834 52.5424 13.7167 51.6758 13.05C50.8091 12.35 49.6758 12 48.2758 12H42.1758V20.4ZM62.4859 41L71.6859 6.00002H83.1859L92.3859 41H85.5859L83.6859 33.3H71.1859L69.2859 41H62.4859ZM72.7359 27.2H82.1359L77.8859 10.15H76.9859L72.7359 27.2ZM96.5754 41V6.00002H109.125L116.075 36.5H116.975V6.00002H123.475V41H110.925L103.975 10.5H103.075V41H96.5754ZM127.671 41L136.871 6.00002H148.371L157.571 41H150.771L148.871 33.3H136.371L134.471 41H127.671ZM137.921 27.2H147.321L143.071 10.15H142.171L137.921 27.2ZM161.761 41V6.00002H174.311L181.261 36.5H182.161V6.00002H188.661V41H176.111L169.161 10.5H168.261V41H161.761ZM192.857 41L202.057 6.00002H213.557L222.757 41H215.957L214.057 33.3H201.557L199.657 41H192.857ZM203.107 27.2H212.507L208.257 10.15H207.357L203.107 27.2Z" fill="black"/>
</svg>
