<svg width="122" height="31" viewBox="0 0 122 31" fill="none" xmlns="http://www.w3.org/2000/svg">
<g clip-path="url(#clip0_63_182)">
<mask id="mask0_63_182" style="mask-type:luminance" maskUnits="userSpaceOnUse" x="0" y="0" width="123" height="31">
<path d="M122.001 0H0V30.9146H122.001V0Z" fill="white"/>
</mask>
<g mask="url(#mask0_63_182)">
<path d="M13.3837 0L0 7.72866V23.186L13.3837 30.9146L26.7675 23.186V7.72866L13.3837 0ZM21.0974 19.9103L13.3862 24.3632L5.67494 19.9103V11.0044L13.3862 6.55143L21.0974 11.0044V19.9103Z" fill="black"/>
<path d="M41.4519 23.202C40.1228 23.202 38.9322 22.8978 37.8837 22.2857C36.8341 21.6748 36.0057 20.7932 35.3987 19.6382C34.7916 18.4833 34.4887 17.0933 34.4887 15.4672C34.4887 13.841 34.7953 12.4289 35.4048 11.2702C36.0156 10.1128 36.8465 9.22987 37.8998 8.62272C38.952 8.01555 40.1364 7.71259 41.4532 7.71259C42.3087 7.71259 43.1074 7.835 43.8418 8.07738C44.5775 8.31975 45.2315 8.67217 45.8051 9.13465C46.3789 9.59715 46.845 10.1623 47.2073 10.83C47.5683 11.4978 47.802 12.257 47.9108 13.109H44.9249C44.8568 12.6775 44.7259 12.2917 44.5305 11.9491C44.3339 11.6091 44.0866 11.3185 43.7874 11.0786C43.487 10.8387 43.1458 10.6569 42.7662 10.532C42.3841 10.4071 41.9688 10.3453 41.5163 10.3453C40.72 10.3453 40.019 10.5444 39.4107 10.9425C38.8036 11.3407 38.3288 11.9207 37.9888 12.6837C37.6476 13.4454 37.4769 14.3753 37.4769 15.4672C37.4769 16.5592 37.6488 17.5076 37.9925 18.2668C38.3375 19.0261 38.8098 19.5986 39.4144 19.987C40.019 20.3752 40.7163 20.5694 41.5039 20.5694C41.9428 20.5694 42.3507 20.51 42.7278 20.3913C43.1049 20.2739 43.4449 20.1007 43.7454 19.8744C44.0446 19.6494 44.2968 19.3724 44.4995 19.0447C44.7024 18.717 44.8446 18.3411 44.9249 17.9168H47.9108C47.8229 18.6241 47.6127 19.2969 47.2789 19.9313C46.9451 20.5644 46.5001 21.1271 45.9424 21.6154C45.3861 22.1053 44.7307 22.4898 43.9791 22.7754C43.2261 23.0586 42.3841 23.2008 41.4544 23.2008V23.2045L41.4519 23.202Z" fill="black"/>
<path d="M52.4038 16.4133V22.993H49.5095V7.90924H52.3234V13.6482H52.4655C52.7277 12.9941 53.1407 12.4772 53.7007 12.0988C54.2595 11.7216 54.9729 11.5312 55.8359 11.5312C56.6186 11.5312 57.3048 11.6994 57.8896 12.037C58.4768 12.3745 58.933 12.8605 59.2557 13.4949C59.5797 14.128 59.7404 14.896 59.7404 15.7937V22.9907H56.835V16.2796C56.835 15.5501 56.6494 14.9825 56.2785 14.5732C55.9077 14.1652 55.3834 13.9611 54.7096 13.9611C54.257 13.9611 53.859 14.0587 53.5153 14.2554C53.1704 14.452 52.8996 14.7303 52.7004 15.09C52.5014 15.4524 52.4025 15.8902 52.4025 16.4119V16.4145L52.4038 16.4133Z" fill="black"/>
<path d="M64.8859 23.2169C64.1638 23.2169 63.5185 23.0882 62.9486 22.8323C62.3785 22.5751 61.9297 22.1954 61.6021 21.6934C61.2745 21.1914 61.1113 20.5681 61.1113 19.8263C61.1113 19.1931 61.2275 18.665 61.4612 18.2458C61.6948 17.8267 62.0113 17.489 62.4132 17.2294C62.815 16.9696 63.2688 16.7731 63.7794 16.642C64.2887 16.511 64.8241 16.4181 65.3829 16.3638C66.0443 16.2957 66.5773 16.2339 66.9827 16.1771C67.3883 16.1201 67.6826 16.0287 67.868 15.9038C68.0534 15.7788 68.1462 15.5946 68.1462 15.3522V15.3016C68.1462 14.7945 67.9904 14.4013 67.6814 14.1219C67.371 13.8423 66.9284 13.7014 66.3547 13.7014C65.7477 13.7014 65.2655 13.8338 64.9069 14.1021C64.5496 14.3679 64.311 14.6907 64.1886 15.0678L61.4958 14.7735C61.6639 14.086 61.9706 13.4999 62.4119 13.0175C62.8533 12.5353 63.4085 12.1668 64.0761 11.9133C64.7437 11.6598 65.5029 11.5324 66.3535 11.5324C66.9408 11.5324 67.5132 11.6017 68.0695 11.7402C68.626 11.8774 69.128 12.0975 69.578 12.3993C70.0255 12.6998 70.3853 13.0967 70.6499 13.5888C70.9156 14.0823 71.0504 14.682 71.0504 15.3918V22.9931H68.2785V21.4239H68.1981C68.0214 21.7603 67.7877 22.0656 67.4897 22.3365C67.193 22.6073 66.8283 22.8199 66.3967 22.9795C65.9653 23.139 65.462 23.2182 64.8884 23.2182H64.8847L64.8859 23.2169ZM65.6735 21.1519C66.1729 21.1519 66.6082 21.0529 66.9791 20.8537C67.3501 20.6547 67.6405 20.3889 67.8495 20.055C68.0585 19.7211 68.1636 19.3514 68.1636 18.947V17.6807C68.0695 17.7487 67.9299 17.8093 67.7493 17.8638C67.5664 17.9181 67.3611 17.9676 67.1311 18.0108C66.9024 18.0541 66.6749 18.0925 66.4524 18.1271C66.2299 18.1606 66.0308 18.1877 65.8552 18.2075C65.4707 18.2619 65.1319 18.3497 64.8377 18.4696C64.5434 18.5921 64.3122 18.7566 64.144 18.9655C63.976 19.1745 63.8907 19.4379 63.8907 19.7557C63.8907 20.2145 64.0575 20.5619 64.3913 20.7994C64.7252 21.0355 65.1517 21.1531 65.6711 21.1531H65.6723L65.6735 21.1519Z" fill="black"/>
<path d="M72.9522 22.9942V11.677H75.8465V22.9942H72.9522Z" fill="black"/>
<path d="M80.6446 16.4132V22.9931H77.7503V11.6746H80.5939V13.6482H80.7164C80.9723 13.0002 81.379 12.4858 81.9353 12.1037C82.4918 11.7216 83.1915 11.5324 84.036 11.5324C84.8186 11.5324 85.5023 11.7006 86.0846 12.0382C86.6683 12.3745 87.1207 12.863 87.4422 13.4999C87.7624 14.138 87.9231 14.9021 87.9231 15.7924V22.9893H85.0287V16.2784C85.0287 15.5563 84.8421 14.9887 84.4675 14.5782C84.0941 14.1676 83.5786 13.9599 82.9232 13.9599C82.4782 13.9599 82.0837 14.0575 81.7437 14.2542C81.4025 14.4507 81.1354 14.7289 80.9389 15.0888C80.7422 15.4512 80.6458 15.8889 80.6458 16.4107V16.4132H80.6446Z" fill="black"/>
<path d="M92.7184 7.16724V22.9943H89.8241V7.16724H92.7184Z" fill="black"/>
<path d="M94.62 22.9942V11.677H97.5144V22.9942H94.62Z" fill="black"/>
<path d="M102.311 16.4132V22.9931H99.4171V11.6746H102.261V13.6482H102.383C102.639 13.0002 103.046 12.4858 103.602 12.1037C104.159 11.7216 104.858 11.5324 105.703 11.5324C106.485 11.5324 107.169 11.7006 107.753 12.0382C108.336 12.3745 108.789 12.863 109.109 13.4999C109.429 14.138 109.59 14.9021 109.59 15.7924V22.9893H106.696V16.2784C106.696 15.5563 106.509 14.9887 106.134 14.5782C105.761 14.1676 105.245 13.9599 104.59 13.9599C104.145 13.9599 103.751 14.0575 103.411 14.2542C103.069 14.4507 102.802 14.7289 102.606 15.0888C102.409 15.4512 102.311 15.8889 102.311 16.4107V16.4132Z" fill="black"/>
<path d="M118.568 22.9944H122.001L117.482 16.5778L121.767 11.6759H118.408L114.57 16.1004H114.39V7.90924H111.494V22.9944H114.39V19.2994L115.297 18.2928L118.568 22.993V22.9944Z" fill="black"/>
<path d="M75.8692 7.16724H72.9749V10.0621H75.8692V7.16724Z" fill="black"/>
<path d="M97.5396 7.16724H94.6454V10.0621H97.5396V7.16724Z" fill="black"/>
</g>
</g>
<defs>
<clipPath id="clip0_63_182">
<rect width="122" height="31" fill="white"/>
</clipPath>
</defs>
</svg>
