<svg width="107" height="31" viewBox="0 0 107 31" fill="none" xmlns="http://www.w3.org/2000/svg">
<path d="M40.6869 8.55863C38.6931 8.55863 37.1566 9.76529 37.1566 11.5566C37.1566 13.2982 38.4585 13.8953 40.077 14.2187L42.1178 14.567C44.8271 15.0397 46.692 16.3584 46.692 19.4932C46.692 22.7648 44.1586 24.6805 40.9332 24.6805C38.0245 24.6805 35.28 22.8643 34.8813 19.3066C34.8461 19.008 35.0689 18.7468 35.3504 18.7468H36.5702C36.8047 18.7468 37.0041 18.9334 37.0393 19.1822C37.2974 21.695 39.1387 22.6902 40.9449 22.6902C42.9153 22.6902 44.4753 21.6577 44.4753 19.5678C44.4753 17.7018 43.2203 17.055 41.5548 16.7191L39.5375 16.3459C36.7109 15.8483 34.9399 14.4053 34.9399 11.6686C34.9399 8.49643 37.5437 6.55583 40.6752 6.55583C43.1734 6.55583 45.9296 8.0486 46.4691 11.5939C46.516 11.8925 46.2932 12.1786 46 12.1786H44.7333C44.5104 12.1786 44.3111 12.0044 44.2759 11.7681C43.9123 9.41698 42.2937 8.55863 40.6869 8.55863Z" fill="black"/>
<path d="M54.8076 10.4993C57.8218 10.4993 59.9681 12.2035 60.7305 14.99C60.8126 15.301 60.5898 15.6245 60.2731 15.6245H58.8539C58.6545 15.6245 58.4786 15.4876 58.4083 15.2886C57.8805 13.6963 56.6607 12.7882 54.8076 12.7882C52.2859 12.7882 50.8785 14.9651 50.8785 17.5899C50.8785 20.2023 52.2977 22.3917 54.8076 22.3917C56.6607 22.3917 57.8805 21.4836 58.4083 19.8913C58.4786 19.6922 58.6545 19.5554 58.8539 19.5554H60.2731C60.5898 19.5554 60.8126 19.8788 60.7188 20.1898C59.9095 23.1007 57.8336 24.6806 54.8076 24.6806C50.9254 24.6806 48.4624 21.496 48.4624 17.5899C48.4507 13.6963 50.9254 10.4993 54.8076 10.4993Z" fill="black"/>
<path d="M63.0061 22.4165H66.0438V13.4598H63.3345C63.0765 13.4598 62.8654 13.2359 62.8654 12.9623V11.6934C62.8654 11.4197 63.0765 11.1958 63.3345 11.1958H67.029C67.8031 11.1958 68.4365 11.8676 68.4365 12.6886V13.0493C69.105 11.3451 70.5476 10.9221 72.7878 10.9221C73.644 10.9221 74.2187 11.0714 74.5471 11.1958C74.7347 11.2705 74.852 11.457 74.852 11.6561V12.9747C74.852 13.3106 74.5471 13.5594 74.2421 13.4474C73.8433 13.3106 73.2804 13.1862 72.5415 13.1862C70.1488 13.1862 68.4482 14.9153 68.4482 17.9133V22.4165H72.3538C72.6118 22.4165 72.823 22.6404 72.823 22.9141V24.1829C72.823 24.4566 72.6118 24.6805 72.3538 24.6805H63.0178C62.7598 24.6805 62.5487 24.4566 62.5487 24.1829V22.9141C62.537 22.6404 62.7481 22.4165 63.0061 22.4165Z" fill="black"/>
<path d="M76.6348 17.5899C76.6348 13.6962 79.0744 10.4992 83.0386 10.4992C87.0029 10.4992 89.4425 13.6838 89.4425 17.5899C89.4425 21.496 87.0029 24.6805 83.0386 24.6805C79.0744 24.6805 76.6348 21.496 76.6348 17.5899ZM83.0386 22.3916C85.5837 22.3916 87.0498 20.2147 87.0498 17.5899C87.0498 14.9775 85.5837 12.7881 83.0386 12.7881C80.4935 12.7881 79.0275 14.9651 79.0275 17.5899C79.0275 20.2147 80.4935 22.3916 83.0386 22.3916Z" fill="black"/>
<path d="M98.4147 22.5286C98.6727 22.5286 98.8838 22.7525 98.8838 23.0262V24.1955C98.8838 24.4692 98.6727 24.6931 98.4147 24.6931H92.914C92.656 24.6931 92.4448 24.4692 92.4448 24.1955V8.8449H90.6152C90.3571 8.8449 90.146 8.62099 90.146 8.34731V7.17798C90.146 6.9043 90.3571 6.68039 90.6152 6.68039H93.3245C94.0986 6.68039 94.7319 7.35213 94.7319 8.17316V22.5286H98.4147Z" fill="black"/>
<path d="M106.531 22.5286C106.789 22.5286 107 22.7525 107 23.0262V24.1955C107 24.4692 106.789 24.6931 106.531 24.6931H101.03C100.772 24.6931 100.561 24.4692 100.561 24.1955V8.8449H98.7313C98.4733 8.8449 98.2622 8.62099 98.2622 8.34731V7.17798C98.2622 6.9043 98.4733 6.68039 98.7313 6.68039H101.441C102.215 6.68039 102.848 7.35213 102.848 8.17316V22.5286H106.531Z" fill="black"/>
<path d="M3.70623 11.9422C2.56856 10.7977 1.77102 9.31737 1.77102 7.56336V7.37677C1.86485 4.37879 4.1871 1.96548 7.01369 1.8784H25.0054C25.4745 1.90328 25.8498 2.25159 25.8498 2.76162V18.9084C26.2603 18.983 26.4597 19.0452 26.8585 19.1945C27.1752 19.3189 27.6091 19.5802 27.6091 19.5802V2.76162C27.5857 1.23153 26.4362 0 24.9936 0H7.00197C3.1198 0.0621987 0 3.43337 0 7.56336C0 9.96423 1.03212 12.0168 2.72103 13.4598C2.83832 13.5593 2.94388 13.6837 3.24882 13.6837C3.77661 13.6837 4.15192 13.2359 4.12846 12.7507C4.11673 12.3402 3.95253 12.1909 3.70623 11.9422Z" fill="black"/>
<path d="M24.5364 19.9659H10.4269C9.47693 19.9784 8.71457 20.787 8.71457 21.7946V23.9467C8.73802 24.9418 9.53557 25.7878 10.4856 25.7878H11.5294V23.9467H10.4856V21.8444C10.4856 21.8444 10.7436 21.8444 11.0603 21.8444C12.843 21.8444 14.1566 23.5984 14.1566 25.4768C14.1566 27.1437 12.7257 29.2709 10.3331 29.0967C8.21024 28.9474 7.06084 26.9446 7.06084 25.4768V7.24009C7.06084 6.41906 6.42749 5.74732 5.65341 5.74732H4.24598V7.61328H5.28982V25.4892C5.23118 29.1216 7.72936 30.9502 10.3331 30.9502L24.5482 31C27.4099 31 29.7322 28.5369 29.7322 25.4892C29.7322 22.4415 27.3982 19.9659 24.5364 19.9659ZM27.9612 25.6012C27.9026 27.5542 26.3896 29.1216 24.5364 29.1216L14.6492 29.0843C15.4351 28.114 15.9159 26.8576 15.9159 25.4892C15.9159 23.3371 14.7079 21.8568 14.7079 21.8568H24.5482C26.4365 21.8568 27.9729 23.4864 27.9729 25.4892L27.9612 25.6012Z" fill="black"/>
<path d="M20.736 7.94906H10.0982V6.0831H20.736C21.2169 6.0831 21.6157 6.49361 21.6157 7.01608C21.6157 7.52611 21.2286 7.94906 20.736 7.94906Z" fill="black"/>
<path d="M20.736 16.7316H10.0982V14.8656H20.736C21.2169 14.8656 21.6157 15.2761 21.6157 15.7986C21.6157 16.3086 21.2286 16.7316 20.736 16.7316Z" fill="black"/>
<path d="M22.6126 12.3403H10.0982V10.4743H22.6009C23.0818 10.4743 23.4805 10.8848 23.4805 11.4073C23.4923 11.9173 23.0935 12.3403 22.6126 12.3403Z" fill="black"/>
</svg>
